<?xml version="1.0" encoding="UTF-8" standalone="no"?>
<!DOCTYPE svg PUBLIC "-//W3C//DTD SVG 1.1//EN"
 "http://www.w3.org/Graphics/SVG/1.1/DTD/svg11.dtd">
<!-- Generated by graphviz version 15.1.1 (20260805.0921)
 -->
<!-- Title: OOP_2/generate.cpp Pages: 1 -->
<svg width="587pt" height="308pt"
 viewBox="0.00 0.00 587.00 308.00" xmlns="http://www.w3.org/2000/svg" xmlns:xlink="http://www.w3.org/1999/xlink">
<g id="graph0" class="graph" transform="scale(1 1) rotate(0) translate(4 304)">
<title>OOP_2/generate.cpp</title>
<!-- Node1 -->
<g id="Node000001" class="node">
<title>Node1</title>
<g id="a_Node000001"><a xlink:title=" ">
<polygon fill="#999999" stroke="#666666" points="177.78,-300 70.28,-300 70.28,-280 177.78,-280 177.78,-300"/>
<text xml:space="preserve" text-anchor="middle" x="124.03" y="-286.5" font-family="Helvetica,sans-Serif" font-size="10.00">OOP_2/generate.cpp</text>
</a>
</g>
</g>
<!-- Node2 -->
<g id="Node000002" class="node">
<title>Node2</title>
<g id="a_Node000002"><a xlink:href="generate_8h.html" target="_top" xlink:title=" ">
<polygon fill="white" stroke="#666666" points="154.9,-244 93.15,-244 93.15,-224 154.9,-224 154.9,-244"/>
<text xml:space="preserve" text-anchor="middle" x="124.03" y="-230.5" font-family="Helvetica,sans-Serif" font-size="10.00">generate.h</text>
</a>
</g>
</g>
<!-- Node1&#45;&gt;Node2 -->
<g id="edge1_Node000001_Node000002" class="edge">
<title>Node1&#45;&gt;Node2</title>
<g id="a_edge1_Node000001_Node000002"><a xlink:title=" ">
<path fill="none" stroke="#63b8ff" d="M124.03,-279.59C124.03,-273.01 124.03,-263.96 124.03,-255.73"/>
<polygon fill="#63b8ff" stroke="#63b8ff" points="127.53,-255.81 124.03,-245.81 120.53,-255.81 127.53,-255.81"/>
</a>
</g>
</g>
<!-- Node3 -->
<g id="Node000003" class="node">
<title>Node3</title>
<g id="a_Node000003"><a xlink:href="main_8h.html" target="_top" xlink:title=" ">
<polygon fill="white" stroke="#666666" points="250.65,-188 205.4,-188 205.4,-168 250.65,-168 250.65,-188"/>
<text xml:space="preserve" text-anchor="middle" x="228.03" y="-174.5" font-family="Helvetica,sans-Serif" font-size="10.00">main.h</text>
</a>
</g>
</g>
<!-- Node2&#45;&gt;Node3 -->
<g id="edge2_Node000002_Node000003" class="edge">
<title>Node2&#45;&gt;Node3</title>
<g id="a_edge2_Node000002_Node000003"><a xlink:title=" ">
<path fill="none" stroke="#63b8ff" d="M142.14,-223.59C158,-215.36 181.31,-203.26 199.64,-193.74"/>
<polygon fill="#63b8ff" stroke="#63b8ff" points="201.16,-196.89 208.43,-189.18 197.94,-190.68 201.16,-196.89"/>
</a>
</g>
</g>
<!-- Node6 -->
<g id="Node000006" class="node">
<title>Node6</title>
<g id="a_Node000006"><a xlink:title=" ">
<polygon fill="#e0e0e0" stroke="#999999" points="59.03,-20 19.03,-20 19.03,0 59.03,0 59.03,-20"/>
<text xml:space="preserve" text-anchor="middle" x="39.03" y="-6.5" font-family="Helvetica,sans-Serif" font-size="10.00">string</text>
</a>
</g>
</g>
<!-- Node2&#45;&gt;Node6 -->
<g id="edge26_Node000002_Node000006" class="edge">
<title>Node2&#45;&gt;Node6</title>
<g id="a_edge26_Node000002_Node000006"><a xlink:title=" ">
<path fill="none" stroke="#63b8ff" d="M111.82,-223.71C84.29,-201.75 18.44,-143.41 2.03,-76 -0.08,-67.36 -0.97,-64.37 2.03,-56 5.7,-45.73 12.85,-36.13 19.88,-28.46"/>
<polygon fill="#63b8ff" stroke="#63b8ff" points="22.25,-31.04 26.81,-21.48 17.28,-26.11 22.25,-31.04"/>
</a>
</g>
</g>
<!-- Node7 -->
<g id="Node000007" class="node">
<title>Node7</title>
<g id="a_Node000007"><a xlink:title=" ">
<polygon fill="#e0e0e0" stroke="#999999" points="60.53,-76 17.53,-76 17.53,-56 60.53,-56 60.53,-76"/>
<text xml:space="preserve" text-anchor="middle" x="39.03" y="-62.5" font-family="Helvetica,sans-Serif" font-size="10.00">vector</text>
</a>
</g>
</g>
<!-- Node2&#45;&gt;Node7 -->
<g id="edge25_Node000002_Node000007" class="edge">
<title>Node2&#45;&gt;Node7</title>
<g id="a_edge25_Node000002_Node000007"><a xlink:title=" ">
<path fill="none" stroke="#63b8ff" d="M119.21,-223.6C105.71,-197.23 67.28,-122.19 48.97,-86.42"/>
<polygon fill="#63b8ff" stroke="#63b8ff" points="52.15,-84.95 44.48,-77.64 45.92,-88.14 52.15,-84.95"/>
</a>
</g>
</g>
<!-- Node19 -->
<g id="Node000019" class="node">
<title>Node19</title>
<g id="a_Node000019"><a xlink:title=" ">
<polygon fill="#e0e0e0" stroke="#999999" points="317.15,-188 268.9,-188 268.9,-168 317.15,-168 317.15,-188"/>
<text xml:space="preserve" text-anchor="middle" x="293.03" y="-174.5" font-family="Helvetica,sans-Serif" font-size="10.00">random</text>
</a>
</g>
</g>
<!-- Node2&#45;&gt;Node19 -->
<g id="edge27_Node000002_Node000019" class="edge">
<title>Node2&#45;&gt;Node19</title>
<g id="a_edge27_Node000002_Node000019"><a xlink:title=" ">
<path fill="none" stroke="#63b8ff" d="M153.46,-223.59C182.52,-214.31 226.97,-200.11 257.86,-190.23"/>
<polygon fill="#63b8ff" stroke="#63b8ff" points="258.68,-193.65 267.14,-187.27 256.55,-186.98 258.68,-193.65"/>
</a>
</g>
</g>
<!-- Node4 -->
<g id="Node000004" class="node">
<title>Node4</title>
<g id="a_Node000004"><a xlink:title=" ">
<polygon fill="#e0e0e0" stroke="#999999" points="560.28,-132 497.78,-132 497.78,-112 560.28,-112 560.28,-132"/>
<text xml:space="preserve" text-anchor="middle" x="529.03" y="-118.5" font-family="Helvetica,sans-Serif" font-size="10.00">windows.h</text>
</a>
</g>
</g>
<!-- Node3&#45;&gt;Node4 -->
<g id="edge3_Node000003_Node000004" class="edge">
<title>Node3&#45;&gt;Node4</title>
<g id="a_edge3_Node000003_Node000004"><a xlink:title=" ">
<path fill="none" stroke="#63b8ff" d="M251.02,-170.18C254.03,-169.39 257.09,-168.64 260.03,-168 357.14,-146.79 385.83,-150.98 486.34,-132.39"/>
<polygon fill="#63b8ff" stroke="#63b8ff" points="486.96,-135.84 496.14,-130.55 485.66,-128.96 486.96,-135.84"/>
</a>
</g>
</g>
<!-- Node5 -->
<g id="Node000005" class="node">
<title>Node5</title>
<g id="a_Node000005"><a xlink:title=" ">
<polygon fill="#e0e0e0" stroke="#999999" points="552.78,-20 499.28,-20 499.28,0 552.78,0 552.78,-20"/>
<text xml:space="preserve" text-anchor="middle" x="526.03" y="-6.5" font-family="Helvetica,sans-Serif" font-size="10.00">iostream</text>
</a>
</g>
</g>
<!-- Node3&#45;&gt;Node5 -->
<g id="edge4_Node000003_Node000005" class="edge">
<title>Node3&#45;&gt;Node5</title>
<g id="a_edge4_Node000003_Node000005"><a xlink:title=" ">
<path fill="none" stroke="#63b8ff" d="M250.99,-170.07C254.01,-169.3 257.08,-168.58 260.03,-168 327.85,-154.6 523.06,-183.63 569.03,-132 595.69,-102.04 563.64,-54.43 542.23,-28.78"/>
<polygon fill="#63b8ff" stroke="#63b8ff" points="545.14,-26.79 535.95,-21.53 539.86,-31.38 545.14,-26.79"/>
</a>
</g>
</g>
<!-- Node3&#45;&gt;Node6 -->
<g id="edge5_Node000003_Node000006" class="edge">
<title>Node3&#45;&gt;Node6</title>
<g id="a_edge5_Node000003_Node000006"><a xlink:title=" ">
<path fill="none" stroke="#63b8ff" d="M205.17,-175.4C156.51,-170.55 44.22,-151.29 9.03,-76 1.57,-60.05 11.55,-41.86 21.95,-28.78"/>
<polygon fill="#63b8ff" stroke="#63b8ff" points="24.44,-31.25 28.36,-21.41 19.16,-26.66 24.44,-31.25"/>
</a>
</g>
</g>
<!-- Node3&#45;&gt;Node7 -->
<g id="edge6_Node000003_Node000007" class="edge">
<title>Node3&#45;&gt;Node7</title>
<g id="a_edge6_Node000003_Node000007"><a xlink:title=" ">
<path fill="none" stroke="#63b8ff" d="M204.97,-171.99C178.78,-165.59 135.47,-152.76 103.03,-132 83.3,-119.38 65.01,-99.65 53.08,-85.23"/>
<polygon fill="#63b8ff" stroke="#63b8ff" points="55.82,-83.06 46.84,-77.44 50.35,-87.43 55.82,-83.06"/>
</a>
</g>
</g>
<!-- Node8 -->
<g id="Node000008" class="node">
<title>Node8</title>
<g id="a_Node000008"><a xlink:title=" ">
<polygon fill="#e0e0e0" stroke="#999999" points="263.43,-132 234.63,-132 234.63,-112 263.43,-112 263.43,-132"/>
<text xml:space="preserve" text-anchor="middle" x="249.03" y="-118.5" font-family="Helvetica,sans-Serif" font-size="10.00">list</text>
</a>
</g>
</g>
<!-- Node3&#45;&gt;Node8 -->
<g id="edge7_Node000003_Node000008" class="edge">
<title>Node3&#45;&gt;Node8</title>
<g id="a_edge7_Node000003_Node000008"><a xlink:title=" ">
<path fill="none" stroke="#63b8ff" d="M231.68,-167.59C234.33,-160.78 238.01,-151.32 241.3,-142.86"/>
<polygon fill="#63b8ff" stroke="#63b8ff" points="244.5,-144.3 244.86,-133.71 237.97,-141.76 244.5,-144.3"/>
</a>
</g>
</g>
<!-- Node9 -->
<g id="Node000009" class="node">
<title>Node9</title>
<g id="a_Node000009"><a xlink:title=" ">
<polygon fill="#e0e0e0" stroke="#999999" points="324.15,-132 281.9,-132 281.9,-112 324.15,-112 324.15,-132"/>
<text xml:space="preserve" text-anchor="middle" x="303.03" y="-118.5" font-family="Helvetica,sans-Serif" font-size="10.00">deque</text>
</a>
</g>
</g>
<!-- Node3&#45;&gt;Node9 -->
<g id="edge8_Node000003_Node000009" class="edge">
<title>Node3&#45;&gt;Node9</title>
<g id="a_edge8_Node000003_Node000009"><a xlink:title=" ">
<path fill="none" stroke="#63b8ff" d="M241.09,-167.59C251.99,-159.74 267.78,-148.38 280.68,-139.09"/>
<polygon fill="#63b8ff" stroke="#63b8ff" points="282.56,-142.05 288.63,-133.36 278.47,-136.37 282.56,-142.05"/>
</a>
</g>
</g>
<!-- Node10 -->
<g id="Node000010" class="node">
<title>Node10</title>
<g id="a_Node000010"><a xlink:title=" ">
<polygon fill="#e0e0e0" stroke="#999999" points="400.03,-132 342.03,-132 342.03,-112 400.03,-112 400.03,-132"/>
<text xml:space="preserve" text-anchor="middle" x="371.03" y="-118.5" font-family="Helvetica,sans-Serif" font-size="10.00">exception</text>
</a>
</g>
</g>
<!-- Node3&#45;&gt;Node10 -->
<g id="edge9_Node000003_Node000010" class="edge">
<title>Node3&#45;&gt;Node10</title>
<g id="a_edge9_Node000003_Node000010"><a xlink:title=" ">
<path fill="none" stroke="#63b8ff" d="M251,-168.32C273.8,-159.72 309.06,-146.4 335.47,-136.43"/>
<polygon fill="#63b8ff" stroke="#63b8ff" points="336.65,-139.72 344.77,-132.91 334.18,-133.17 336.65,-139.72"/>
</a>
</g>
</g>
<!-- Node11 -->
<g id="Node000011" class="node">
<title>Node11</title>
<g id="a_Node000011"><a xlink:title=" ">
<polygon fill="#e0e0e0" stroke="#999999" points="479.9,-132 418.15,-132 418.15,-112 479.9,-112 479.9,-132"/>
<text xml:space="preserve" text-anchor="middle" x="449.03" y="-118.5" font-family="Helvetica,sans-Serif" font-size="10.00">type_traits</text>
</a>
</g>
</g>
<!-- Node3&#45;&gt;Node11 -->
<g id="edge10_Node000003_Node000011" class="edge">
<title>Node3&#45;&gt;Node11</title>
<g id="a_edge10_Node000003_Node000011"><a xlink:title=" ">
<path fill="none" stroke="#63b8ff" d="M251.07,-170.4C254.08,-169.57 257.12,-168.75 260.03,-168 310.39,-154.93 368.69,-141.27 407.07,-132.48"/>
<polygon fill="#63b8ff" stroke="#63b8ff" points="407.38,-136 416.35,-130.36 405.82,-129.17 407.38,-136"/>
</a>
</g>
</g>
<!-- Node12 -->
<g id="Node000012" class="node">
<title>Node12</title>
<g id="a_Node000012"><a xlink:href="zmogus_8h.html" target="_top" xlink:title="Abstrakti bazinė klasė, aprašanti bendrus žmogaus duomenis.">
<polygon fill="white" stroke="#666666" points="498.4,-76 439.65,-76 439.65,-56 498.4,-56 498.4,-76"/>
<text xml:space="preserve" text-anchor="middle" x="469.03" y="-62.5" font-family="Helvetica,sans-Serif" font-size="10.00">zmogus.h</text>
</a>
</g>
</g>
<!-- Node3&#45;&gt;Node12 -->
<g id="edge11_Node000003_Node000012" class="edge">
<title>Node3&#45;&gt;Node12</title>
<g id="a_edge11_Node000003_Node000012"><a xlink:title=" ">
<path fill="none" stroke="#63b8ff" d="M224.31,-167.79C219.4,-153.95 212.82,-127.74 226.03,-112 253.76,-78.94 369.14,-84.29 428.23,-75.91"/>
<polygon fill="#63b8ff" stroke="#63b8ff" points="428.49,-79.42 437.76,-74.29 427.31,-72.52 428.49,-79.42"/>
</a>
</g>
</g>
<!-- Node14 -->
<g id="Node000014" class="node">
<title>Node14</title>
<g id="a_Node000014"><a xlink:href="studentas_8h.html" target="_top" xlink:title="Išvestinė klasė studentas — studento duomenys ir galutinių balų skaičiavimas.">
<polygon fill="white" stroke="#666666" points="178.53,-132 111.53,-132 111.53,-112 178.53,-112 178.53,-132"/>
<text xml:space="preserve" text-anchor="middle" x="145.03" y="-118.5" font-family="Helvetica,sans-Serif" font-size="10.00">studentas.h</text>
</a>
</g>
</g>
<!-- Node3&#45;&gt;Node14 -->
<g id="edge15_Node000003_Node000014" class="edge">
<title>Node3&#45;&gt;Node14</title>
<g id="a_edge15_Node000003_Node000014"><a xlink:title=" ">
<path fill="none" stroke="#63b8ff" d="M213.57,-167.59C201.27,-159.59 183.35,-147.93 168.92,-138.54"/>
<polygon fill="#63b8ff" stroke="#63b8ff" points="171.15,-135.82 160.86,-133.3 167.34,-141.69 171.15,-135.82"/>
</a>
</g>
</g>
<!-- Node12&#45;&gt;Node5 -->
<g id="edge13_Node000012_Node000005" class="edge">
<title>Node12&#45;&gt;Node5</title>
<g id="a_edge13_Node000012_Node000005"><a xlink:title=" ">
<path fill="none" stroke="#63b8ff" d="M478.95,-55.59C486.96,-48.01 498.44,-37.13 508.06,-28.02"/>
<polygon fill="#63b8ff" stroke="#63b8ff" points="510.26,-30.76 515.11,-21.34 505.44,-25.68 510.26,-30.76"/>
</a>
</g>
</g>
<!-- Node12&#45;&gt;Node6 -->
<g id="edge12_Node000012_Node000006" class="edge">
<title>Node12&#45;&gt;Node6</title>
<g id="a_edge12_Node000012_Node000006"><a xlink:title=" ">
<path fill="none" stroke="#63b8ff" d="M439.28,-57.77C436.17,-57.13 433.04,-56.52 430.03,-56 297.54,-33.16 137.74,-18.85 70.87,-13.45"/>
<polygon fill="#63b8ff" stroke="#63b8ff" points="71.25,-9.96 61,-12.66 70.69,-16.94 71.25,-9.96"/>
</a>
</g>
</g>
<!-- Node13 -->
<g id="Node000013" class="node">
<title>Node13</title>
<g id="a_Node000013"><a xlink:title=" ">
<polygon fill="#e0e0e0" stroke="#999999" points="426.4,-20 367.65,-20 367.65,0 426.4,0 426.4,-20"/>
<text xml:space="preserve" text-anchor="middle" x="397.03" y="-6.5" font-family="Helvetica,sans-Serif" font-size="10.00">stdexcept</text>
</a>
</g>
</g>
<!-- Node12&#45;&gt;Node13 -->
<g id="edge14_Node000012_Node000013" class="edge">
<title>Node12&#45;&gt;Node13</title>
<g id="a_edge14_Node000012_Node000013"><a xlink:title=" ">
<path fill="none" stroke="#63b8ff" d="M456.48,-55.59C446.06,-47.77 430.98,-36.46 418.61,-27.19"/>
<polygon fill="#63b8ff" stroke="#63b8ff" points="420.73,-24.41 410.63,-21.21 416.53,-30.01 420.73,-24.41"/>
</a>
</g>
</g>
<!-- Node14&#45;&gt;Node5 -->
<g id="edge19_Node000014_Node000005" class="edge">
<title>Node14&#45;&gt;Node5</title>
<g id="a_edge19_Node000014_Node000005"><a xlink:title=" ">
<path fill="none" stroke="#63b8ff" d="M178.74,-117.05C268.01,-106.57 503.9,-78.66 507.03,-76 519.77,-65.16 524.21,-46.28 525.65,-31.66"/>
<polygon fill="#63b8ff" stroke="#63b8ff" points="529.14,-31.89 526.19,-21.72 522.15,-31.51 529.14,-31.89"/>
</a>
</g>
</g>
<!-- Node14&#45;&gt;Node6 -->
<g id="edge17_Node000014_Node000006" class="edge">
<title>Node14&#45;&gt;Node6</title>
<g id="a_edge17_Node000014_Node000006"><a xlink:title=" ">
<path fill="none" stroke="#63b8ff" d="M135.99,-111.62C118.23,-93.19 78.54,-52.01 55.83,-28.44"/>
<polygon fill="#63b8ff" stroke="#63b8ff" points="58.55,-26.22 49.09,-21.44 53.51,-31.07 58.55,-26.22"/>
</a>
</g>
</g>
<!-- Node14&#45;&gt;Node7 -->
<g id="edge18_Node000014_Node000007" class="edge">
<title>Node14&#45;&gt;Node7</title>
<g id="a_edge18_Node000014_Node000007"><a xlink:title=" ">
<path fill="none" stroke="#63b8ff" d="M126.56,-111.59C110.32,-103.32 86.42,-91.14 67.69,-81.6"/>
<polygon fill="#63b8ff" stroke="#63b8ff" points="69.48,-78.59 58.98,-77.17 66.3,-84.82 69.48,-78.59"/>
</a>
</g>
</g>
<!-- Node14&#45;&gt;Node12 -->
<g id="edge16_Node000014_Node000012" class="edge">
<title>Node14&#45;&gt;Node12</title>
<g id="a_edge16_Node000014_Node000012"><a xlink:title=" ">
<path fill="none" stroke="#63b8ff" d="M178.83,-114.51C183.59,-113.64 188.43,-112.78 193.03,-112 294.58,-94.77 323.48,-95.89 428.2,-76.22"/>
<polygon fill="#63b8ff" stroke="#63b8ff" points="428.61,-79.7 437.78,-74.4 427.3,-72.82 428.61,-79.7"/>
</a>
</g>
</g>
<!-- Node14&#45;&gt;Node13 -->
<g id="edge23_Node000014_Node000013" class="edge">
<title>Node14&#45;&gt;Node13</title>
<g id="a_edge23_Node000014_Node000013"><a xlink:title=" ">
<path fill="none" stroke="#63b8ff" d="M178.75,-117.41C216.08,-112.35 277.16,-100.81 324.03,-76 346.88,-63.9 368.39,-43.18 382.06,-28.38"/>
<polygon fill="#63b8ff" stroke="#63b8ff" points="384.43,-30.98 388.49,-21.19 379.21,-26.31 384.43,-30.98"/>
</a>
</g>
</g>
<!-- Node15 -->
<g id="Node000015" class="node">
<title>Node15</title>
<g id="a_Node000015"><a xlink:title=" ">
<polygon fill="#e0e0e0" stroke="#999999" points="421.28,-76 370.78,-76 370.78,-56 421.28,-56 421.28,-76"/>
<text xml:space="preserve" text-anchor="middle" x="396.03" y="-62.5" font-family="Helvetica,sans-Serif" font-size="10.00">numeric</text>
</a>
</g>
</g>
<!-- Node14&#45;&gt;Node15 -->
<g id="edge20_Node000014_Node000015" class="edge">
<title>Node14&#45;&gt;Node15</title>
<g id="a_edge20_Node000014_Node000015"><a xlink:title=" ">
<path fill="none" stroke="#63b8ff" d="M178.84,-114.01C220.72,-105.32 294.21,-89.91 357.03,-76 357.84,-75.82 358.66,-75.64 359.49,-75.45"/>
<polygon fill="#63b8ff" stroke="#63b8ff" points="359.99,-78.93 368.97,-73.31 358.44,-72.1 359.99,-78.93"/>
</a>
</g>
</g>
<!-- Node16 -->
<g id="Node000016" class="node">
<title>Node16</title>
<g id="a_Node000016"><a xlink:title=" ">
<polygon fill="#e0e0e0" stroke="#999999" points="172.9,-76 117.15,-76 117.15,-56 172.9,-56 172.9,-76"/>
<text xml:space="preserve" text-anchor="middle" x="145.03" y="-62.5" font-family="Helvetica,sans-Serif" font-size="10.00">algorithm</text>
</a>
</g>
</g>
<!-- Node14&#45;&gt;Node16 -->
<g id="edge21_Node000014_Node000016" class="edge">
<title>Node14&#45;&gt;Node16</title>
<g id="a_edge21_Node000014_Node000016"><a xlink:title=" ">
<path fill="none" stroke="#63b8ff" d="M145.03,-111.59C145.03,-105.01 145.03,-95.96 145.03,-87.73"/>
<polygon fill="#63b8ff" stroke="#63b8ff" points="148.53,-87.81 145.03,-77.81 141.53,-87.81 148.53,-87.81"/>
</a>
</g>
</g>
<!-- Node17 -->
<g id="Node000017" class="node">
<title>Node17</title>
<g id="a_Node000017"><a xlink:title=" ">
<polygon fill="#e0e0e0" stroke="#999999" points="240.9,-76 191.15,-76 191.15,-56 240.9,-56 240.9,-76"/>
<text xml:space="preserve" text-anchor="middle" x="216.03" y="-62.5" font-family="Helvetica,sans-Serif" font-size="10.00">iomanip</text>
</a>
</g>
</g>
<!-- Node14&#45;&gt;Node17 -->
<g id="edge22_Node000014_Node000017" class="edge">
<title>Node14&#45;&gt;Node17</title>
<g id="a_edge22_Node000014_Node000017"><a xlink:title=" ">
<path fill="none" stroke="#63b8ff" d="M157.39,-111.59C167.68,-103.77 182.54,-92.46 194.74,-83.19"/>
<polygon fill="#63b8ff" stroke="#63b8ff" points="196.75,-86.05 202.59,-77.21 192.52,-80.48 196.75,-86.05"/>
</a>
</g>
</g>
<!-- Node18 -->
<g id="Node000018" class="node">
<title>Node18</title>
<g id="a_Node000018"><a xlink:title=" ">
<polygon fill="#e0e0e0" stroke="#999999" points="314.9,-76 259.15,-76 259.15,-56 314.9,-56 314.9,-76"/>
<text xml:space="preserve" text-anchor="middle" x="287.03" y="-62.5" font-family="Helvetica,sans-Serif" font-size="10.00">charconv</text>
</a>
</g>
</g>
<!-- Node14&#45;&gt;Node18 -->
<g id="edge24_Node000014_Node000018" class="edge">
<title>Node14&#45;&gt;Node18</title>
<g id="a_edge24_Node000014_Node000018"><a xlink:title=" ">
<path fill="none" stroke="#63b8ff" d="M169.76,-111.59C192.32,-103.01 225.93,-90.23 251.39,-80.55"/>
<polygon fill="#63b8ff" stroke="#63b8ff" points="252.58,-83.84 260.68,-77.02 250.09,-77.3 252.58,-83.84"/>
</a>
</g>
</g>
</g>
</svg>
